# Aspose.3D Wavefront OBJ Exporter
# Copyright 2004-2024 Aspose Pty Ltd.
# File created: 02/05/2024 15:06:41

mtllib material.lib
g Cube_Material002_0

#
# object Cube_Material002_0
#

v -0.1 0.09999999 -0.10000002
v -0.1 0.10000002 0.09999999
v -0.1 2.1 0.09999966
v -0.1 2.1 -0.100000344
v -0.1 2.1 0.09999966
v 0.1 2.1 0.09999966
v 0.2 2.1000001 0.19999966
v -0.2 2.1000001 0.19999966
v -0.1 0.10000002 0.09999999
v 0.1 0.10000002 0.09999999
v 0.1 2.1 0.09999966
v -0.1 2.1 0.09999966
v 0.1 0.09999999 -0.10000002
v -0.1 0.09999999 -0.10000002
v -0.1 2.1 -0.100000344
v 0.1 2.1 -0.100000344
v 0.1 0.10000002 0.09999999
v 0.1 0.09999999 -0.10000002
v 0.1 2.1 -0.100000344
v 0.1 2.1 0.09999966
v -0.2 2.1 -0.20000035
v -0.2 2.1000001 0.19999966
v 0 2.5 -4.0730168E-07
v 0.1 2.1 -0.100000344
v -0.1 2.1 -0.100000344
v -0.2 2.1 -0.20000035
v 0.2 2.1 -0.20000035
v -0.1 2.1 -0.100000344
v -0.1 2.1 0.09999966
v -0.2 2.1000001 0.19999966
v -0.2 2.1 -0.20000035
v -0.2 2.1000001 0.19999966
v 0.2 2.1000001 0.19999966
v 0 2.5 -4.0730168E-07
v 0.2 2.1 -0.20000035
v -0.2 2.1 -0.20000035
v 0 2.5 -4.0730168E-07
v 0.2 2.1000001 0.19999966
v 0.2 2.1 -0.20000035
v 0 2.5 -4.0730168E-07
# 40 vertices

vn -1 0 0
vn -1 0 0
vn -1 0 0
vn -1 0 0
vn 0 -1 1.6292068E-07
vn 0 -1 1.6292068E-07
vn 0 -1 1.6292068E-07
vn 0 -1 1.6292068E-07
vn 0 1.6292068E-07 1
vn 0 1.6292068E-07 1
vn 0 1.6292068E-07 1
vn 0 1.6292068E-07 1
vn 0 -1.6292068E-07 -1
vn 0 -1.6292068E-07 -1
vn 0 -1.6292068E-07 -1
vn 0 -1.6292068E-07 -1
vn 1 0 0
vn 1 0 0
vn 1 0 0
vn 1 0 0
vn -0.8944273 0.44721365 -7.286035E-08
vn -0.8944273 0.44721365 -7.286035E-08
vn -0.8944273 0.44721365 -7.286035E-08
vn 0 -1 1.6292068E-07
vn 0 -1 1.6292068E-07
vn 0 -1 1.6292068E-07
vn 0 -1 1.6292068E-07
vn 0 -1 1.6292068E-07
vn 0 -1 1.6292068E-07
vn 0 -1 1.6292068E-07
vn 0 -1 1.6292068E-07
vn 0 0.4472138 0.89442724
vn 0 0.4472138 0.89442724
vn 0 0.4472138 0.89442724
vn 0 0.4472135 -0.89442736
vn 0 0.4472135 -0.89442736
vn 0 0.4472135 -0.89442736
vn 0.8944273 0.44721365 -7.286035E-08
vn 0.8944273 0.44721365 -7.286035E-08
vn 0.8944273 0.44721365 -7.286035E-08
# 40 vertex normals

vt 0.625 -0.25 0
vt 0.625 -0 0
vt 0.625 -0 0
vt 0.625 -0.25 0
vt 0.625 -1 0
vt 0.625 -0.75 0
vt 0.625 -0.75 0
vt 0.625 -1 0
vt 0.625 -1 0
vt 0.625 -0.75 0
vt 0.625 -0.75 0
vt 0.625 -1 0
vt 0.625 -0.5 0
vt 0.875 -0.5 0
vt 0.875 -0.5 0
vt 0.625 -0.5 0
vt 0.625 -0.75 0
vt 0.625 -0.5 0
vt 0.625 -0.5 0
vt 0.625 -0.75 0
vt 0.625 -0.25 0
vt 0.625 -0 0
vt 0.625 -0 0
vt 0.625 -0.5 0
vt 0.875 -0.5 0
vt 0.875 -0.5 0
vt 0.625 -0.5 0
vt 0.625 -0.25 0
vt 0.625 -0 0
vt 0.625 -0 0
vt 0.625 -0.25 0
vt 0.625 -1 0
vt 0.625 -0.75 0
vt 0.625 -0.75 0
vt 0.625 -0.5 0
vt 0.875 -0.5 0
vt 0.875 -0.5 0
vt 0.625 -0.75 0
vt 0.625 -0.5 0
vt 0.625 -0.5 0
# 40 texture coords

usemtl Material.002
s 1
f 1/1/1 2/2/2 3/3/3
f 1/1/1 3/3/3 4/4/4
f 5/5/5 6/6/6 7/7/7
f 5/5/5 7/7/7 8/8/8
f 9/9/9 10/10/10 11/11/11
f 9/9/9 11/11/11 12/12/12
f 13/13/13 14/14/14 15/15/15
f 13/13/13 15/15/15 16/16/16
f 17/17/17 18/18/18 19/19/19
f 17/17/17 19/19/19 20/20/20
f 21/21/21 22/22/22 23/23/23
f 24/24/24 25/25/25 26/26/26
f 24/24/24 26/26/26 27/27/27
f 6/6/6 24/24/24 27/27/27
f 6/6/6 27/27/27 7/7/7
f 28/28/28 29/29/29 30/30/30
f 28/28/28 30/30/30 31/31/31
f 32/32/32 33/33/33 34/34/34
f 35/35/35 36/36/36 37/37/37
f 38/38/38 39/39/39 40/40/40
#20 polygons

